<?xml version="1.0" encoding="UTF-8" standalone="no"?>
<!DOCTYPE svg PUBLIC "-//W3C//DTD SVG 1.1//EN" "http://www.w3.org/Graphics/SVG/1.1/DTD/svg11.dtd">
<svg width="100%" height="100%" viewBox="0 0 250 54" version="1.1" xmlns="http://www.w3.org/2000/svg" xmlns:xlink="http://www.w3.org/1999/xlink" xml:space="preserve" xmlns:serif="http://www.serif.com/" style="fill-rule:evenodd;clip-rule:evenodd;stroke-linejoin:round;stroke-miterlimit:2;">
    <g transform="matrix(1,0,0,1,-75.5734,-56.8046)">
        <g transform="matrix(72.5944,0,0,72.5944,71,109)">
            <path d="M0.256,-0.719C0.289,-0.719 0.315,-0.715 0.332,-0.708C0.349,-0.7 0.365,-0.691 0.378,-0.682C0.386,-0.677 0.393,-0.674 0.398,-0.672C0.403,-0.669 0.407,-0.668 0.412,-0.668C0.423,-0.668 0.43,-0.683 0.434,-0.712L0.457,-0.712C0.456,-0.701 0.456,-0.687 0.455,-0.672C0.454,-0.656 0.453,-0.635 0.453,-0.61C0.452,-0.584 0.452,-0.55 0.452,-0.508L0.429,-0.508C0.427,-0.54 0.42,-0.571 0.408,-0.6C0.396,-0.629 0.379,-0.653 0.356,-0.672C0.333,-0.691 0.302,-0.7 0.265,-0.7C0.23,-0.7 0.201,-0.689 0.178,-0.668C0.155,-0.647 0.143,-0.619 0.143,-0.584C0.143,-0.554 0.151,-0.529 0.166,-0.508C0.181,-0.488 0.202,-0.47 0.228,-0.454C0.253,-0.437 0.281,-0.42 0.311,-0.401C0.346,-0.38 0.377,-0.359 0.404,-0.338C0.431,-0.317 0.452,-0.293 0.468,-0.268C0.483,-0.243 0.491,-0.212 0.491,-0.176C0.491,-0.133 0.481,-0.098 0.462,-0.07C0.443,-0.042 0.417,-0.021 0.385,-0.007C0.353,0.007 0.318,0.014 0.279,0.014C0.244,0.014 0.216,0.01 0.195,0.002C0.174,-0.006 0.157,-0.014 0.142,-0.023C0.127,-0.032 0.116,-0.037 0.108,-0.037C0.097,-0.037 0.09,-0.022 0.086,0.007L0.063,0.007C0.064,-0.007 0.065,-0.024 0.066,-0.043C0.066,-0.062 0.066,-0.086 0.067,-0.117C0.067,-0.148 0.067,-0.186 0.067,-0.233L0.09,-0.233C0.093,-0.193 0.1,-0.156 0.113,-0.121C0.125,-0.086 0.144,-0.059 0.17,-0.038C0.195,-0.017 0.229,-0.006 0.272,-0.006C0.305,-0.006 0.335,-0.017 0.362,-0.038C0.389,-0.059 0.402,-0.092 0.402,-0.139C0.402,-0.18 0.388,-0.213 0.359,-0.24C0.33,-0.267 0.293,-0.294 0.246,-0.322C0.215,-0.341 0.185,-0.361 0.158,-0.381C0.131,-0.401 0.109,-0.424 0.093,-0.451C0.076,-0.477 0.068,-0.509 0.068,-0.546C0.068,-0.585 0.077,-0.618 0.095,-0.644C0.112,-0.669 0.135,-0.688 0.164,-0.701C0.193,-0.713 0.223,-0.719 0.256,-0.719Z" style="fill-rule:nonzero;"/>
        </g>
        <g transform="matrix(72.5944,0,0,72.5944,110.201,109)">
            <path d="M0.279,-0.529C0.3,-0.529 0.321,-0.526 0.341,-0.521C0.361,-0.516 0.379,-0.508 0.395,-0.497C0.41,-0.487 0.422,-0.475 0.43,-0.463C0.438,-0.45 0.442,-0.435 0.442,-0.42C0.442,-0.402 0.437,-0.388 0.427,-0.379C0.417,-0.369 0.404,-0.364 0.389,-0.364C0.374,-0.364 0.362,-0.368 0.35,-0.377C0.34,-0.386 0.334,-0.398 0.334,-0.414C0.334,-0.429 0.338,-0.442 0.346,-0.451C0.355,-0.46 0.365,-0.466 0.376,-0.469C0.369,-0.481 0.358,-0.491 0.341,-0.499C0.324,-0.507 0.305,-0.511 0.286,-0.511C0.269,-0.511 0.253,-0.507 0.236,-0.499C0.219,-0.491 0.204,-0.478 0.19,-0.46C0.176,-0.441 0.165,-0.416 0.156,-0.385C0.147,-0.353 0.143,-0.313 0.143,-0.266C0.143,-0.207 0.15,-0.161 0.163,-0.126C0.176,-0.091 0.194,-0.067 0.216,-0.051C0.237,-0.037 0.261,-0.029 0.287,-0.029C0.313,-0.029 0.339,-0.037 0.366,-0.052C0.393,-0.067 0.415,-0.094 0.432,-0.132L0.451,-0.125C0.444,-0.104 0.433,-0.082 0.418,-0.061C0.403,-0.039 0.383,-0.021 0.358,-0.007C0.333,0.007 0.303,0.014 0.267,0.014C0.226,0.014 0.188,0.003 0.155,-0.018C0.122,-0.039 0.095,-0.07 0.076,-0.11C0.056,-0.149 0.046,-0.196 0.046,-0.251C0.046,-0.306 0.056,-0.354 0.076,-0.396C0.095,-0.437 0.123,-0.47 0.158,-0.494C0.193,-0.517 0.234,-0.529 0.279,-0.529Z" style="fill-rule:nonzero;"/>
        </g>
        <g transform="matrix(72.5944,0,0,72.5944,145.482,109)">
            <path d="M0.34,-0.529C0.358,-0.529 0.374,-0.525 0.388,-0.518C0.401,-0.511 0.412,-0.501 0.42,-0.49C0.427,-0.478 0.431,-0.465 0.431,-0.45C0.431,-0.433 0.426,-0.419 0.416,-0.406C0.405,-0.393 0.391,-0.387 0.374,-0.387C0.36,-0.387 0.348,-0.392 0.337,-0.401C0.326,-0.409 0.321,-0.422 0.321,-0.439C0.321,-0.452 0.325,-0.463 0.332,-0.471C0.339,-0.481 0.346,-0.488 0.355,-0.493C0.35,-0.5 0.343,-0.503 0.334,-0.503C0.306,-0.503 0.282,-0.493 0.261,-0.471C0.24,-0.451 0.224,-0.425 0.213,-0.396C0.201,-0.367 0.195,-0.34 0.195,-0.315L0.195,-0.103C0.195,-0.07 0.204,-0.049 0.224,-0.038C0.243,-0.027 0.268,-0.021 0.301,-0.021L0.301,-0C0.286,-0.001 0.264,-0.002 0.236,-0.003C0.208,-0.004 0.178,-0.004 0.147,-0.004C0.124,-0.004 0.102,-0.004 0.08,-0.003C0.057,-0.002 0.04,-0.001 0.029,-0L0.029,-0.021C0.056,-0.021 0.076,-0.026 0.087,-0.036C0.099,-0.046 0.105,-0.065 0.105,-0.093L0.105,-0.406C0.105,-0.436 0.1,-0.458 0.089,-0.472C0.078,-0.487 0.058,-0.494 0.029,-0.494L0.029,-0.515C0.05,-0.513 0.071,-0.512 0.091,-0.512C0.11,-0.512 0.129,-0.513 0.147,-0.516C0.164,-0.518 0.18,-0.521 0.195,-0.526L0.195,-0.401C0.202,-0.42 0.213,-0.44 0.227,-0.46C0.24,-0.479 0.257,-0.496 0.276,-0.509C0.295,-0.522 0.317,-0.529 0.34,-0.529Z" style="fill-rule:nonzero;"/>
        </g>
        <g transform="matrix(72.5944,0,0,72.5944,176.334,109)">
            <path d="M0.272,-0.529C0.331,-0.529 0.377,-0.511 0.409,-0.475C0.443,-0.44 0.459,-0.384 0.459,-0.309L0.106,-0.309L0.105,-0.328L0.363,-0.328C0.364,-0.361 0.362,-0.391 0.355,-0.419C0.348,-0.446 0.338,-0.468 0.324,-0.485C0.309,-0.502 0.291,-0.51 0.268,-0.51C0.237,-0.51 0.21,-0.495 0.187,-0.464C0.163,-0.433 0.149,-0.385 0.144,-0.318L0.147,-0.314C0.146,-0.304 0.145,-0.293 0.144,-0.281C0.143,-0.269 0.143,-0.257 0.143,-0.245C0.143,-0.2 0.15,-0.161 0.165,-0.128C0.18,-0.095 0.199,-0.07 0.223,-0.054C0.246,-0.037 0.271,-0.028 0.296,-0.028C0.326,-0.028 0.354,-0.035 0.379,-0.05C0.404,-0.065 0.426,-0.091 0.443,-0.128L0.463,-0.12C0.456,-0.098 0.444,-0.077 0.427,-0.056C0.41,-0.035 0.389,-0.019 0.364,-0.006C0.339,0.007 0.309,0.014 0.276,0.014C0.228,0.014 0.187,0.003 0.153,-0.019C0.118,-0.041 0.092,-0.071 0.074,-0.111C0.055,-0.15 0.046,-0.194 0.046,-0.245C0.046,-0.304 0.055,-0.354 0.074,-0.397C0.093,-0.439 0.119,-0.471 0.153,-0.495C0.187,-0.518 0.227,-0.529 0.272,-0.529Z" style="fill-rule:nonzero;"/>
        </g>
        <g transform="matrix(72.5944,0,0,72.5944,213.067,109)">
            <path d="M0.272,-0.529C0.331,-0.529 0.377,-0.511 0.409,-0.475C0.443,-0.44 0.459,-0.384 0.459,-0.309L0.106,-0.309L0.105,-0.328L0.363,-0.328C0.364,-0.361 0.362,-0.391 0.355,-0.419C0.348,-0.446 0.338,-0.468 0.324,-0.485C0.309,-0.502 0.291,-0.51 0.268,-0.51C0.237,-0.51 0.21,-0.495 0.187,-0.464C0.163,-0.433 0.149,-0.385 0.144,-0.318L0.147,-0.314C0.146,-0.304 0.145,-0.293 0.144,-0.281C0.143,-0.269 0.143,-0.257 0.143,-0.245C0.143,-0.2 0.15,-0.161 0.165,-0.128C0.18,-0.095 0.199,-0.07 0.223,-0.054C0.246,-0.037 0.271,-0.028 0.296,-0.028C0.326,-0.028 0.354,-0.035 0.379,-0.05C0.404,-0.065 0.426,-0.091 0.443,-0.128L0.463,-0.12C0.456,-0.098 0.444,-0.077 0.427,-0.056C0.41,-0.035 0.389,-0.019 0.364,-0.006C0.339,0.007 0.309,0.014 0.276,0.014C0.228,0.014 0.187,0.003 0.153,-0.019C0.118,-0.041 0.092,-0.071 0.074,-0.111C0.055,-0.15 0.046,-0.194 0.046,-0.245C0.046,-0.304 0.055,-0.354 0.074,-0.397C0.093,-0.439 0.119,-0.471 0.153,-0.495C0.187,-0.518 0.227,-0.529 0.272,-0.529Z" style="fill-rule:nonzero;"/>
        </g>
        <g transform="matrix(72.5944,0,0,72.5944,249.8,109)">
            <path d="M0.365,-0.529C0.39,-0.529 0.411,-0.526 0.429,-0.519C0.446,-0.512 0.46,-0.503 0.471,-0.491C0.484,-0.478 0.493,-0.461 0.498,-0.441C0.503,-0.421 0.506,-0.394 0.506,-0.36L0.506,-0.093C0.506,-0.065 0.512,-0.046 0.524,-0.036C0.535,-0.026 0.555,-0.021 0.582,-0.021L0.582,-0C0.571,-0.001 0.553,-0.002 0.53,-0.003C0.507,-0.004 0.484,-0.004 0.462,-0.004C0.44,-0.004 0.419,-0.004 0.398,-0.003C0.377,-0.002 0.361,-0.001 0.35,-0L0.35,-0.021C0.374,-0.021 0.391,-0.026 0.401,-0.036C0.411,-0.046 0.416,-0.065 0.416,-0.093L0.416,-0.382C0.416,-0.403 0.414,-0.422 0.411,-0.439C0.408,-0.456 0.4,-0.47 0.389,-0.481C0.377,-0.492 0.359,-0.497 0.335,-0.497C0.293,-0.497 0.259,-0.48 0.234,-0.445C0.208,-0.409 0.195,-0.366 0.195,-0.315L0.195,-0.093C0.195,-0.065 0.2,-0.046 0.21,-0.036C0.22,-0.026 0.237,-0.021 0.261,-0.021L0.261,-0C0.25,-0.001 0.234,-0.002 0.214,-0.003C0.193,-0.004 0.171,-0.004 0.149,-0.004C0.127,-0.004 0.104,-0.004 0.081,-0.003C0.058,-0.002 0.04,-0.001 0.029,-0L0.029,-0.021C0.056,-0.021 0.076,-0.026 0.087,-0.036C0.099,-0.046 0.105,-0.065 0.105,-0.093L0.105,-0.406C0.105,-0.436 0.1,-0.458 0.089,-0.472C0.078,-0.487 0.058,-0.494 0.029,-0.494L0.029,-0.515C0.05,-0.513 0.071,-0.512 0.091,-0.512C0.11,-0.512 0.129,-0.513 0.147,-0.516C0.164,-0.518 0.18,-0.521 0.195,-0.526L0.195,-0.408C0.212,-0.453 0.236,-0.485 0.268,-0.502C0.299,-0.52 0.331,-0.529 0.365,-0.529Z" style="fill-rule:nonzero;"/>
        </g>
        <g transform="matrix(72.5944,0,0,72.5944,293.139,109)">
            <path d="M0.439,-0.52L0.15,-0.015L0.26,-0.015C0.287,-0.015 0.31,-0.02 0.33,-0.031C0.349,-0.042 0.365,-0.059 0.377,-0.083C0.389,-0.106 0.396,-0.137 0.399,-0.176L0.422,-0.176C0.422,-0.133 0.422,-0.097 0.423,-0.068C0.424,-0.039 0.425,-0.015 0.426,0.004C0.397,0.003 0.366,0.002 0.335,0.001C0.303,0 0.271,-0 0.24,-0C0.207,-0 0.173,0 0.138,0.001C0.103,0.002 0.07,0.004 0.038,0.005L0.327,-0.5L0.217,-0.5C0.188,-0.5 0.163,-0.495 0.143,-0.484C0.124,-0.473 0.109,-0.456 0.099,-0.433C0.088,-0.409 0.081,-0.378 0.078,-0.339L0.055,-0.339C0.055,-0.382 0.055,-0.419 0.054,-0.448C0.053,-0.476 0.052,-0.5 0.051,-0.519C0.08,-0.518 0.111,-0.517 0.142,-0.516C0.174,-0.515 0.206,-0.515 0.237,-0.515C0.27,-0.515 0.304,-0.516 0.339,-0.517C0.374,-0.518 0.407,-0.519 0.439,-0.52Z" style="fill-rule:nonzero;"/>
        </g>
    </g>
</svg>
